<?xml version="1.0" standalone="no"?>
<!DOCTYPE svg PUBLIC "-//W3C//DTD SVG 20010904//EN"
 "http://www.w3.org/TR/2001/REC-SVG-20010904/DTD/svg10.dtd">
<svg version="1.0" xmlns="http://www.w3.org/2000/svg"
 width="225.000000pt" height="225.000000pt" viewBox="0 0 225.000000 225.000000"
 preserveAspectRatio="xMidYMid meet">

<g transform="translate(0.000000,225.000000) scale(0.100000,-0.100000)"
fill="#000000" stroke="none">
<path d="M0 1125 l0 -1125 1125 0 1125 0 0 1125 0 1125 -1125 0 -1125 0 0
-1125z m465 410 c22 -22 25 -32 25 -104 0 -44 5 -92 12 -105 9 -22 8 -29 -7
-46 -21 -23 -38 -25 -54 -6 -9 11 -18 10 -51 -6 -34 -17 -44 -18 -75 -8 -19 6
-40 20 -45 30 -13 25 -13 76 1 102 13 24 67 48 109 48 28 0 31 3 28 28 -4 36
-44 43 -68 12 -12 -16 -22 -20 -43 -15 -36 9 -35 37 4 69 43 37 129 37 164 1z
m278 3 l22 -23 22 23 c28 28 76 29 103 2 18 -18 20 -33 20 -150 l0 -130 -35 0
-34 0 -3 112 c-3 102 -5 113 -22 116 -35 7 -46 -25 -46 -130 l0 -98 -35 0 -35
0 0 98 c0 110 -14 146 -47 126 -15 -9 -18 -28 -21 -118 l-3 -106 -39 0 -40 0
0 145 0 145 35 0 c25 0 35 -4 35 -16 0 -13 5 -12 26 5 35 27 69 27 97 -1z
m421 1 c24 -19 26 -26 26 -102 0 -51 5 -92 14 -109 13 -24 12 -28 -8 -47 -26
-24 -39 -26 -55 -7 -9 11 -18 10 -51 -6 -33 -17 -45 -18 -71 -9 -65 22 -79 88
-31 142 21 24 38 32 75 36 52 6 61 14 52 43 -9 28 -58 27 -76 -1 -11 -16 -20
-19 -42 -14 -31 8 -34 21 -11 53 21 30 48 41 105 41 32 1 54 -5 73 -20z m497
5 c37 -19 68 -83 69 -138 0 -58 -34 -121 -76 -141 -89 -42 -168 28 -167 147 1
117 84 179 174 132z m300 -3 c23 -18 24 -27 27 -151 l4 -131 -39 3 -38 3 -5
110 c-5 109 -5 110 -30 110 -31 0 -38 -23 -39 -137 l-1 -88 -35 0 -35 0 0 145
0 145 35 0 c26 0 35 -4 35 -17 0 -15 3 -14 22 5 27 27 68 28 99 3z m-505 -6
c4 -9 -15 -47 -45 -93 -55 -84 -56 -78 14 -98 24 -8 31 -16 33 -43 3 -33 3
-33 -30 -25 -42 11 -115 11 -150 0 -27 -8 -28 -7 -28 26 0 25 14 55 50 107 28
40 50 74 50 77 0 2 -20 4 -45 4 -43 0 -45 1 -45 30 l0 30 95 0 c77 0 97 -3
101 -15z m-40 -309 c8 -21 -13 -90 -37 -120 -29 -36 -32 -29 -13 27 23 68 16
77 -58 77 -60 1 -62 1 -38 15 33 19 139 20 146 1z m-794 -51 c121 -50 212 -67
348 -67 119 0 220 17 312 53 28 11 50 15 53 9 10 -15 -77 -65 -167 -95 -74
-25 -97 -29 -208 -28 -108 0 -136 3 -205 26 -87 28 -185 83 -225 124 -14 14
-18 23 -10 20 8 -3 54 -22 102 -42z m1218 -240 c0 -33 2 -35 35 -35 24 0 35
-5 35 -15 0 -10 -11 -15 -35 -15 l-35 0 0 -101 0 -101 37 4 c43 4 54 -14 18
-30 -73 -33 -95 -2 -95 130 0 91 -1 98 -20 98 -11 0 -20 7 -20 15 0 8 9 15 20
15 15 0 20 7 20 28 0 32 7 42 27 42 8 0 13 -12 13 -35z m-1549 -48 c82 -55 70
-200 -19 -243 -19 -9 -49 -14 -68 -12 l-34 4 0 -63 c0 -56 -2 -63 -20 -63 -19
0 -20 7 -20 190 0 188 0 191 23 200 42 17 102 11 138 -13z m258 -1 c12 -13 17
-43 21 -131 5 -105 3 -115 -12 -115 -10 0 -18 5 -18 10 0 6 -13 4 -30 -5 -40
-21 -72 -19 -104 6 -28 22 -36 73 -16 109 12 22 60 40 106 40 29 0 34 4 34 23
0 13 -5 28 -12 35 -14 14 -72 16 -98 2 -13 -7 -19 -6 -23 4 -17 42 113 61 152
22z m482 5 c23 -18 24 -18 59 0 47 25 76 24 105 -6 24 -23 25 -31 25 -135 0
-91 -3 -110 -15 -110 -12 0 -15 17 -15 89 0 110 -10 141 -46 141 -14 0 -39 -8
-55 -17 -29 -17 -29 -18 -29 -115 0 -91 -1 -98 -20 -98 -19 0 -20 7 -20 99 0
55 -3 106 -6 115 -8 21 -58 21 -89 0 -24 -16 -25 -21 -25 -115 0 -92 -1 -99
-20 -99 -19 0 -20 7 -20 130 0 105 3 130 14 130 8 0 16 -5 18 -11 3 -8 13 -7
33 4 40 22 78 21 106 -2z m388 5 c32 -17 51 -54 51 -101 l0 -35 -80 0 c-71 0
-80 -2 -80 -19 0 -10 10 -31 21 -45 20 -25 27 -27 77 -24 69 4 81 -15 22 -33
-90 -27 -160 31 -160 134 0 105 70 163 149 123z m278 -10 c27 -23 28 -28 31
-135 4 -107 4 -111 -17 -111 -20 0 -21 5 -21 96 0 52 -5 104 -10 115 -13 24
-52 25 -91 2 -29 -17 -29 -18 -29 -115 0 -91 -1 -98 -20 -98 -19 0 -20 7 -20
130 0 121 1 130 19 130 11 0 21 -5 23 -11 2 -6 14 -5 33 5 42 22 69 20 102 -8z
m410 11 c3 -4 3 -13 0 -21 -5 -13 -12 -14 -32 -6 -72 27 -115 -37 -47 -71 68
-34 82 -49 82 -88 0 -45 -23 -69 -71 -77 -41 -7 -89 10 -89 30 0 12 11 13 54
9 49 -5 55 -3 66 18 14 25 6 34 -70 82 -50 33 -55 101 -8 125 22 11 103 10
115 -1z m-1432 -99 c22 -54 43 -98 46 -98 3 0 19 44 35 98 25 80 34 98 51 100
21 3 19 -6 -34 -165 -65 -194 -85 -223 -152 -223 -34 0 -41 3 -41 20 0 16 5
19 29 14 23 -5 35 -1 55 19 43 43 42 67 -2 170 -79 180 -76 169 -50 165 18 -2
30 -21 63 -100z"/>
<path d="M358 1389 c-23 -13 -24 -67 -2 -76 26 -10 48 11 55 51 5 32 3 36 -15
36 -12 0 -29 -5 -38 -11z"/>
<path d="M1055 1384 c-9 -9 -15 -28 -13 -43 7 -57 78 -24 78 36 0 18 -6 23
-24 23 -14 0 -32 -7 -41 -16z"/>
<path d="M1582 1488 c-15 -15 -16 -132 -2 -159 26 -47 70 -1 70 73 0 83 -31
123 -68 86z"/>
<path d="M187 873 c-16 -4 -17 -15 -15 -101 l3 -97 39 -3 c29 -3 44 2 62 19
51 48 39 150 -22 175 -35 14 -37 15 -67 7z"/>
<path d="M466 761 c-64 -14 -67 -91 -4 -91 47 1 68 20 68 64 0 39 -4 40 -64
27z"/>
<path d="M1353 869 c-21 -8 -43 -37 -43 -58 0 -7 24 -11 60 -11 52 0 60 3 60
18 0 17 -20 41 -45 54 -5 3 -20 2 -32 -3z"/>
</g>
</svg>
